<?xml version="1.0" standalone="no"?>
<!DOCTYPE svg PUBLIC "-//W3C//DTD SVG 20010904//EN"
 "http://www.w3.org/TR/2001/REC-SVG-20010904/DTD/svg10.dtd">
<svg version="1.0" xmlns="http://www.w3.org/2000/svg"
 width="225.000000pt" height="225.000000pt" viewBox="0 0 225.000000 225.000000"
 preserveAspectRatio="xMidYMid meet">

<g transform="translate(0.000000,225.000000) scale(0.100000,-0.100000)"
fill="#000000" stroke="none">
<path d="M1098 2173 c6 -2 18 -2 25 0 6 3 1 5 -13 5 -14 0 -19 -2 -12 -5z"/>
<path d="M993 2163 c9 -2 25 -2 35 0 9 3 1 5 -18 5 -19 0 -27 -2 -17 -5z"/>
<path d="M1223 2163 c9 -2 25 -2 35 0 9 3 1 5 -18 5 -19 0 -27 -2 -17 -5z"/>
<path d="M906 2151 c-3 -4 6 -6 19 -3 14 2 25 6 25 8 0 8 -39 4 -44 -5z"/>
<path d="M1298 2153 c6 -2 18 -2 25 0 6 3 1 5 -13 5 -14 0 -19 -2 -12 -5z"/>
<path d="M1336 2141 c-4 -5 3 -7 14 -4 23 6 26 13 6 13 -8 0 -17 -4 -20 -9z"/>
<path d="M1442 2116 c7 -7 19 -11 27 -8 11 4 10 7 -5 13 -29 12 -36 10 -22 -5z"/>
<path d="M710 2090 c-19 -11 -30 -19 -25 -19 6 0 26 8 45 19 19 11 31 19 25
19 -5 0 -26 -8 -45 -19z"/>
<path d="M646 2062 c-3 -5 1 -9 9 -9 8 0 15 4 15 9 0 4 -4 8 -9 8 -6 0 -12 -4
-15 -8z"/>
<path d="M1576 2062 c-3 -4 4 -9 15 -9 23 -2 25 3 4 10 -8 4 -16 3 -19 -1z"/>
<path d="M1620 2046 c0 -3 14 -12 30 -21 17 -9 30 -13 30 -11 0 3 -13 12 -30
21 -16 9 -30 13 -30 11z"/>
<path d="M509 1973 c-13 -17 -13 -17 6 -3 11 8 22 16 24 17 2 2 0 3 -6 3 -6 0
-17 -8 -24 -17z"/>
<path d="M1744 1958 c-4 -7 -3 -10 1 -5 5 4 18 -1 29 -10 21 -18 21 -18 2 5
-22 26 -23 26 -32 10z"/>
<path d="M387 1872 c-43 -43 -52 -58 -38 -58 10 0 17 5 14 11 -2 7 19 33 46
58 28 26 47 47 43 47 -4 0 -33 -26 -65 -58z"/>
<path d="M1813 1905 c0 -8 3 -13 6 -10 7 7 91 -76 86 -85 -2 -4 3 -7 11 -7 9
0 -10 25 -43 59 -31 32 -58 58 -59 58 0 0 -1 -7 -1 -15z"/>
<path d="M291 1763 c-17 -21 -31 -42 -31 -48 0 -5 7 2 17 15 9 14 25 35 36 48
11 12 18 22 14 22 -3 0 -19 -17 -36 -37z"/>
<path d="M376 1792 c-3 -5 1 -9 9 -9 8 0 12 4 9 9 -3 4 -7 8 -9 8 -2 0 -6 -4
-9 -8z"/>
<path d="M1579 1763 c-1 -5 -2 -15 -3 -23 0 -8 -8 -13 -16 -12 -8 2 -12 0 -7
-4 4 -4 -7 -24 -25 -43 -18 -20 -5 -9 30 24 34 33 62 62 62 64 0 3 -5 0 -12
-7 -15 -15 -32 -16 -23 -2 3 6 4 10 1 10 -3 0 -7 -3 -7 -7z"/>
<path d="M1963 1735 c0 -8 4 -12 8 -9 4 2 10 -2 12 -8 4 -8 6 -9 6 -2 1 6 -5
17 -12 23 -10 8 -14 7 -14 -4z"/>
<path d="M1755 1620 c55 -55 102 -100 105 -100 2 0 -40 45 -95 100 -55 55
-102 100 -105 100 -2 0 40 -45 95 -100z"/>
<path d="M2005 1680 c10 -11 20 -20 22 -20 2 0 -2 9 -9 20 -7 11 -17 20 -22
20 -5 0 -1 -9 9 -20z"/>
<path d="M216 1653 c-6 -14 -5 -15 5 -6 7 7 10 15 7 18 -3 3 -9 -2 -12 -12z"/>
<path d="M181 1592 c-17 -31 -13 -40 5 -14 9 13 14 26 11 29 -3 2 -10 -4 -16
-15z"/>
<path d="M1366 1602 c-3 -5 1 -9 9 -9 8 0 12 4 9 9 -3 4 -7 8 -9 8 -2 0 -6 -4
-9 -8z"/>
<path d="M2070 1561 c0 -6 4 -13 10 -16 6 -3 7 1 4 9 -7 18 -14 21 -14 7z"/>
<path d="M1345 1490 c-21 -21 -43 -36 -49 -33 -6 3 -8 3 -4 -2 11 -11 -12 -36
-25 -28 -5 3 -7 2 -4 -4 8 -13 -167 -186 -178 -176 -4 4 -5 2 -1 -4 4 -7 8
-13 9 -13 1 0 70 68 152 150 82 83 147 150 144 150 -3 0 -22 -18 -44 -40z"/>
<path d="M1777 1412 c-63 -63 -82 -88 -68 -88 11 0 17 4 14 9 -8 13 48 67 61
60 6 -3 8 -2 3 2 -4 5 14 30 40 57 26 26 45 48 42 48 -2 0 -44 -40 -92 -88z"/>
<path d="M116 1425 c-3 -9 -6 -22 -5 -28 0 -7 5 -1 10 12 5 13 8 26 5 28 -2 2
-6 -3 -10 -12z"/>
<path d="M90 1315 c0 -8 2 -15 4 -15 2 0 6 7 10 15 3 8 1 15 -4 15 -6 0 -10
-7 -10 -15z"/>
<path d="M2152 1310 c0 -14 2 -19 5 -12 2 6 2 18 0 25 -3 6 -5 1 -5 -13z"/>
<path d="M82 1240 c0 -19 2 -27 5 -17 2 9 2 25 0 35 -3 9 -5 1 -5 -18z"/>
<path d="M2162 1250 c0 -14 2 -19 5 -12 2 6 2 18 0 25 -3 6 -5 1 -5 -13z"/>
<path d="M594 1242 c3 -5 0 -13 -6 -15 -9 -4 -10 -6 -1 -6 17 -1 25 16 12 25
-7 4 -9 3 -5 -4z"/>
<path d="M727 1160 c40 -41 74 -72 75 -70 2 3 -30 36 -72 75 l-75 69 72 -74z"/>
<path d="M2161 1204 c0 -11 3 -14 6 -6 3 7 2 16 -1 19 -3 4 -6 -2 -5 -13z"/>
<path d="M991 1128 c-18 -21 -38 -35 -44 -31 -5 3 -7 2 -4 -4 9 -15 -59 -77
-75 -68 -10 7 -11 5 0 -6 10 -11 25 0 89 63 43 43 75 79 73 81 -3 2 -20 -14
-39 -35z"/>
<path d="M1462 1087 c-42 -42 -67 -74 -58 -74 9 0 14 3 11 6 -9 8 68 81 79 74
6 -3 8 -2 3 2 -4 5 5 21 20 37 15 15 25 28 22 28 -2 0 -37 -33 -77 -73z"/>
<path d="M72 1130 c0 -14 2 -19 5 -12 2 6 2 18 0 25 -3 6 -5 1 -5 -13z"/>
<path d="M486 1115 c-11 -8 -15 -15 -9 -15 6 0 16 7 23 15 16 19 11 19 -14 0z"/>
<path d="M449 1078 c-22 -20 -73 -78 -68 -78 3 0 25 20 49 45 41 42 53 61 19
33z"/>
<path d="M82 1010 c0 -19 2 -27 5 -17 2 9 2 25 0 35 -3 9 -5 1 -5 -18z"/>
<path d="M2162 1010 c0 -14 2 -19 5 -12 2 6 2 18 0 25 -3 6 -5 1 -5 -13z"/>
<path d="M1423 985 c0 -8 4 -12 9 -9 5 3 6 10 3 15 -9 13 -12 11 -12 -6z"/>
<path d="M404 948 c-4 -7 -4 -10 1 -6 4 4 62 -45 127 -110 66 -64 122 -119
126 -122 4 -2 -49 53 -118 123 -69 70 -126 127 -127 127 -1 0 -5 -6 -9 -12z"/>
<path d="M2152 940 c0 -14 2 -19 5 -12 2 6 2 18 0 25 -3 6 -5 1 -5 -13z"/>
<path d="M1304 918 l-19 -23 25 20 c14 11 27 21 29 22 2 2 0 3 -6 3 -5 0 -18
-10 -29 -22z"/>
<path d="M101 894 c0 -11 3 -14 6 -6 3 7 2 16 -1 19 -3 4 -6 -2 -5 -13z"/>
<path d="M1150 763 c-69 -70 -116 -119 -104 -110 11 9 24 14 29 10 4 -5 6 -3
3 2 -7 13 17 36 28 27 4 -4 4 -2 1 4 -7 12 56 76 67 68 3 -2 4 -1 1 3 -8 10
47 63 58 56 6 -3 7 -1 4 4 -7 10 8 28 28 35 8 2 18 28 11 28 -1 0 -57 -57
-126 -127z"/>
<path d="M120 820 c0 -11 2 -20 4 -20 2 0 6 9 9 20 3 11 1 20 -4 20 -5 0 -9
-9 -9 -20z"/>
<path d="M2116 817 c3 -10 9 -15 12 -12 3 3 0 11 -7 18 -10 9 -11 8 -5 -6z"/>
<path d="M130 785 c0 -5 5 -17 10 -25 5 -8 10 -10 10 -5 0 6 -5 17 -10 25 -5
8 -10 11 -10 5z"/>
<path d="M2086 725 c-9 -26 -7 -32 5 -12 6 10 9 21 6 23 -2 3 -7 -2 -11 -11z"/>
<path d="M210 610 c11 -22 23 -40 25 -40 3 0 -4 18 -15 40 -11 22 -23 40 -25
40 -3 0 4 -18 15 -40z"/>
<path d="M2040 635 c-7 -9 -8 -15 -2 -15 5 0 12 7 16 15 3 8 4 15 2 15 -2 0
-9 -7 -16 -15z"/>
<path d="M1006 613 c-6 -14 -5 -15 5 -6 7 7 10 15 7 18 -3 3 -9 -2 -12 -12z"/>
<path d="M813 542 c10 -10 15 -22 12 -25 -3 -4 -2 -5 2 -2 3 3 16 -3 27 -12
12 -10 5 -1 -13 20 -19 20 -37 37 -40 37 -2 0 3 -8 12 -18z"/>
<path d="M929 533 c-13 -16 -12 -17 4 -4 16 13 21 21 13 21 -2 0 -10 -8 -17
-17z"/>
<path d="M280 496 c0 -2 8 -10 18 -17 15 -13 16 -12 3 4 -13 16 -21 21 -21 13z"/>
<path d="M1915 440 c-4 -6 -11 -7 -17 -4 -6 4 -8 2 -5 -3 4 -6 -10 -26 -31
-45 -20 -19 -43 -43 -51 -54 -8 -10 15 10 52 46 37 35 67 66 67 67 0 7 -9 2
-15 -7z"/>
<path d="M355 410 c16 -16 32 -30 36 -30 4 0 -6 14 -23 30 -16 17 -32 30 -36
30 -3 0 7 -13 23 -30z"/>
<path d="M422 343 c25 -27 39 -32 15 -5 -10 10 -15 21 -12 24 3 2 -2 5 -10 5
-12 0 -10 -6 7 -24z"/>
<path d="M1770 310 c-8 -5 -12 -12 -9 -15 4 -3 12 1 19 10 14 17 11 19 -10 5z"/>
<path d="M470 306 c0 -2 14 -14 30 -26 17 -12 30 -19 30 -16 0 2 -13 14 -30
26 -16 12 -30 19 -30 16z"/>
<path d="M1729 273 c-13 -16 -12 -17 4 -4 16 13 21 21 13 21 -2 0 -10 -8 -17
-17z"/>
<path d="M570 236 c0 -3 9 -10 20 -16 11 -6 20 -8 20 -6 0 3 -9 10 -20 16 -11
6 -20 8 -20 6z"/>
<path d="M1649 223 c-13 -15 -12 -15 9 -4 23 12 28 21 13 21 -5 0 -15 -7 -22
-17z"/>
<path d="M621 207 c2 -1 13 -9 24 -17 19 -14 19 -14 6 3 -7 9 -18 17 -24 17
-6 0 -8 -1 -6 -3z"/>
<path d="M791 141 c-10 -6 -4 -12 23 -21 20 -6 42 -10 49 -7 6 2 -5 7 -26 11
-21 4 -35 11 -32 17 8 11 4 11 -14 0z"/>
<path d="M1447 139 c7 -7 15 -10 18 -7 3 3 -2 9 -12 12 -14 6 -15 5 -6 -5z"/>
<path d="M928 93 c7 -3 16 -2 19 1 4 3 -2 6 -13 5 -11 0 -14 -3 -6 -6z"/>
<path d="M1298 93 c6 -2 18 -2 25 0 6 3 1 5 -13 5 -14 0 -19 -2 -12 -5z"/>
<path d="M993 83 c9 -2 23 -2 30 0 6 3 -1 5 -18 5 -16 0 -22 -2 -12 -5z"/>
<path d="M1096 82 c-3 -4 4 -9 15 -9 23 -2 25 3 4 10 -8 4 -16 3 -19 -1z"/>
<path d="M1233 83 c9 -2 23 -2 30 0 6 3 -1 5 -18 5 -16 0 -22 -2 -12 -5z"/>
</g>
</svg>
